<?xml version="1.0" encoding="utf-8"?>
<svg viewBox="0 0 500 500" xmlns="http://www.w3.org/2000/svg">
  <g transform="matrix(0.133785, 0, 0, 0.133785, 168.009722, 154.577074)" style="">
    <path d="M -345.362 305.551 C -216.585 675.856 54.511 1096.455 436.422 1478.364 C 818.334 1860.274 1238.934 2131.373 1609.238 2260.149 C 1659.533 2277.559 1715.079 2265.122 1752.938 2227.539 L 2009.112 1971.366 L 2068.803 1911.676 C 2122.69 1857.788 2122.69 1770.186 2068.803 1716.298 L 1672.246 1320.017 C 1618.358 1266.129 1530.756 1266.129 1476.869 1320.017 L 1369.372 1427.515 C 1313.55 1483.338 1224.566 1488.865 1162.112 1440.228 C 1038.585 1344.059 916.163 1236.01 797.611 1117.455 C 679.058 998.902 571.006 876.481 474.838 752.954 C 426.198 690.5 431.725 601.792 487.549 545.694 L 595.048 438.194 C 648.936 384.307 648.936 296.705 595.048 242.817 L 198.491 -153.74 C 144.604 -207.628 57.002 -207.628 3.114 -153.74 L -56.578 -94.05 L -312.751 162.123 C -350.337 199.709 -362.772 255.255 -345.362 305.551 Z" style="fill: rgb(255, 255, 255);"/>
  </g>
  <g transform="matrix(0.133785, 0, 0, 0.133785, 168.009722, 154.577074)" style=""/>
  <g transform="matrix(0.133785, 0, 0, 0.133785, 168.009722, 154.577074)" style=""/>
  <g transform="matrix(0.133785, 0, 0, 0.133785, 168.009722, 154.577074)" style=""/>
  <g transform="matrix(0.133785, 0, 0, 0.133785, 168.009722, 154.577074)" style=""/>
  <g transform="matrix(0.133785, 0, 0, 0.133785, 168.009722, 154.577074)" style=""/>
  <g transform="matrix(0.133785, 0, 0, 0.133785, 168.009722, 154.577074)" style=""/>
  <g transform="matrix(0.133785, 0, 0, 0.133785, 168.009722, 154.577074)" style=""/>
  <g transform="matrix(0.133785, 0, 0, 0.133785, 168.009722, 154.577074)" style=""/>
  <g transform="matrix(0.133785, 0, 0, 0.133785, 168.009722, 154.577074)" style=""/>
  <g transform="matrix(0.133785, 0, 0, 0.133785, 168.009722, 154.577074)" style=""/>
  <g transform="matrix(0.133785, 0, 0, 0.133785, 168.009722, 154.577074)" style=""/>
  <g transform="matrix(0.133785, 0, 0, 0.133785, 168.009722, 154.577074)" style=""/>
  <g transform="matrix(0.133785, 0, 0, 0.133785, 168.009722, 154.577074)" style=""/>
  <g transform="matrix(0.133785, 0, 0, 0.133785, 168.009722, 154.577074)" style=""/>
  <g transform="matrix(0.133785, 0, 0, 0.133785, 168.009722, 154.577074)" style=""/>
</svg>